<?xml version="1.0" encoding="UTF-8"?>
<svg viewBox="0 0 721.36511 524.41833" xmlns="http://www.w3.org/2000/svg">
 <g transform="translate(-21.923 -456.58)" fill="#fff" fill-rule="evenodd" stroke="#000" stroke-width="20.377">
  <path d="m231.72 489.2c58.227-43.023 110.09 8.1095 110.2 46.784l-108.64-22.352-1.5595-24.432z"/>
  <path d="m313.86 483.48c38.327-30.604 96.354-13.039 109.16 4.1586l-2.0793 76.934-103.45-3.6388-3.6388-77.454z"/>
  <path d="m508.27 497c-65.925-59.301-122.68 21.07-120.6 39.507l89.41 32.749 31.189-72.256z"/>
  <path d="m229.65 491.28c-150.35-20.682-193.55 316.73-197.53 385.71 21.763 34.54 60.901 40.121 98.767 47.824-8.4789-5.5313-10.377-20.808-6.4346-44.732 10.719-65.05 63.573-347.9 146.79-364.89-8.9773-10.142-20.25-19.263-41.586-23.912z"/>
  <path d="m268.11 517.27c30.293 1.1406 60.959 1.0365 83.172 29.11-11.548 12.789-26.429 23.78-29.738 39.117-28.451 131.85-61.517 319.22-44.077 349.71-63.747 25.858-115.39 26.409-148.67-11.436-9.0811-8.2464-8.0518-26.603-6.2379-45.745 37.622-154.39 68.148-331.01 145.55-360.76z"/>
  <path d="m338.81 556.78c25.788-31.355 98.701-19.605 102.93 0 57.247 152.95 74.114 344.04 69.657 384.67-62.129 39.327-169.72 38.979-237.04 0-2.3462-95.563 22.284-258.18 44.45-348.38 4.134-16.822 12.793-28.754 20.008-36.287z"/>
  <path d="m501.85 526.63c-25.095-6.137-54.721-12.479-76.934 15.595 11.548 12.789 26.429 23.78 29.738 39.117 28.451 131.85 71.914 325.46 54.473 355.95 64.786 20.66 113.31 6.6554 138.27-17.674 9.0811-8.2464 0.77422-26.603-1.0396-45.745-37.622-154.39-67.109-317.5-144.51-347.24z"/>
  <path d="m518.67 495.44c28.779-7.3714 73.737 14.231 81.461 26.619 70.187 112.57 123.74 273.71 132.71 333.1 4.228 38.698-43.227 56.756-81.093 64.458 8.4789-5.5313-0.16156-29.81-7.0809-53.049-22.155-74.406-53.177-334.38-167.58-347.22 9.8236-9.7655 19.591-19.556 41.586-23.912z"/>
 </g>
</svg>
